<svg version="1.2" xmlns="http://www.w3.org/2000/svg" viewBox="0 0 726 207" width="726" height="207">
	<title>Logotyp</title>
	<style>
		.s0 { paint-order:stroke fill markers;stroke: #000000;stroke-width: 24;stroke-linejoin: round;;fill: #dd14ea } 
	</style>
	<path id="Hej på dig" class="s0" aria-label="Hej på dig"  d="m32.9 151.4h-1.4q-5.2 0-4.9-3.3l12.6-120.2q0.4-3.3 5.6-3.3h1.4q5.6 0 5.3 3.3l-5.6 53.3h46.4l5.6-53.3q0.4-3.3 5.8-3.3h1.4q5.6 0 5 3.3l-12.6 120.2q-0.3 3.3-5.7 3.3h-1.5q-5.4 0-5-3.3l5.9-56.5h-46.6l-5.7 56.5q-0.4 3.3-6 3.3zm-4.7 0h-1.5q-5.2 0-4.8-3.3l12.6-120.2q0.3-3.3 5.5-3.3h1.5q5.6 0 5.2 3.3l-5.6 53.3h46.5l5.5-53.3q0.4-3.3 5.8-3.3h1.4q5.6 0 5.1 3.3l-12.6 120.2q-0.4 3.3-5.8 3.3h-1.4q-5.4 0-5.1-3.3l6-56.5h-46.6l-5.8 56.5q-0.4 3.3-5.9 3.3zm136.1 0.7q-30.7 0-30.7-36 0-28.5 10.4-44.3 10.4-16 29.3-16 8.7 0 13.9 3.6 5.4 3.4 7.9 8.8 2.5 5.4 2.5 11.2 0 15.4-10.8 23.2-10.8 7.7-27.9 7.7-3.9 0-7.3-0.3-3.5-0.4-6-0.9-0.2 3.4-0.2 6.6 0 13.5 4.9 20 4.9 6.5 15.1 6.5 7.4 0 12.3-1.5 4.8-1.6 7.5-3 2.9-1.6 4-1.6 1.1 0 1.2 2.1 0.4 2 0.4 3.6 0 2.4-3.8 4.7-3.8 2.3-9.9 4-5.9 1.6-12.8 1.6zm-6.1-51.7q7.4 0 13.7-2 6.5-1.9 10.3-6.4 3.9-4.5 3.9-11.9 0-6.3-3.6-10.3-3.6-4.1-10.1-4.1-11.5 0-18 9.5-6.3 9.4-7.9 24.3 6 0.9 11.7 0.9zm1.4 51.7q-30.8 0-30.8-36 0-28.5 10.4-44.3 10.5-16 29.4-16 8.6 0 13.8 3.6 5.4 3.4 8 8.8 2.5 5.4 2.5 11.2 0 15.4-10.8 23.2-10.8 7.7-27.9 7.7-4 0-7.4-0.3-3.4-0.4-5.9-0.9-0.2 3.4-0.2 6.6 0 13.5 4.8 20 4.9 6.5 15.2 6.5 7.3 0 12.2-1.5 4.9-1.6 7.6-3 2.8-1.6 3.9-1.6 1.1 0 1.3 2.1 0.3 2 0.3 3.6 0 2.4-3.7 4.7-3.8 2.3-9.9 4-6 1.6-12.8 1.6zm-6.1-51.7q7.3 0 13.6-2 6.5-1.9 10.3-6.4 4-4.5 4-11.9 0-6.3-3.6-10.3-3.6-4.1-10.1-4.1-11.5 0-18 9.5-6.3 9.4-7.9 24.3 5.9 0.9 11.7 0.9zm56.3 88.8q-3.4 0-7.3-1.1-3.8-1.1-3.8-3.4 0-1.1 0.5-3.8 0.7-2.7 2.2-2.7 0.9 0 2.5 0.5 1.6 0.4 4.9 0.4 4.8 0 7-2.9 2.1-2.9 2.9-10.8l11.1-105.7q0.2-3.2 5.6-3.2h1.4q2.7 0 3.8 0.9 1.1 0.7 0.9 2.3l-11.1 107.5q-1.5 13-6.9 17.5-5.2 4.5-13.7 4.5zm27.4-145.3q-5.9 0-5.8-3.2l1.3-12.3q0.2-3.2 6.5-3.2 3.4 0 4.5 0.9 1.2 0.7 1.2 2.3l-1.4 12.3q-0.2 3.2-6.3 3.2zm-32.1 145.3q-3.4 0-7.4-1.1-3.8-1.1-3.8-3.4 0-1.1 0.6-3.8 0.7-2.7 2.1-2.7 0.9 0 2.5 0.5 1.7 0.4 4.9 0.4 4.9 0 7-2.9 2.2-2.9 2.9-10.8l11.2-105.7q0.1-3.2 5.5-3.2h1.5q2.7 0 3.8 0.9 1 0.7 0.9 2.3l-11.2 107.5q-1.4 13-6.8 17.5-5.3 4.5-13.7 4.5zm27.3-145.3q-5.9 0-5.7-3.2l1.2-12.3q0.2-3.2 6.5-3.2 3.4 0 4.5 0.9 1.3 0.7 1.3 2.3l-1.5 12.3q-0.1 3.2-6.3 3.2zm66.6 144.5h-1.5q-5 0-4.6-3.4l10.8-104.2q0.5-5 0.5-7.6 0.2-2.7 0.2-5.4 0-3-0.2-4.8 0-1.8 0-2.9 0-1.8 2.7-2.3 2.9-0.8 4.7-0.8 2.1 0 2.9 3.1 0.7 3.1 0.7 7.7 4.5-5.9 10.4-9 6.1-3 12.4-3 11.4 0 17.9 9.9 6.4 9.9 6.4 28.1 0 16.2-3.7 29.5-3.6 13.1-11 21-7.4 7.8-18.6 7.8-5.7 0-11.1-2.4-5.4-2.5-9-6.8l-4.3 42.3q-0.4 3.2-5.6 3.2zm28.4-46.2q8.3 0 13.3-6.7 5.1-6.8 7.2-18 2.4-11.1 2.4-24.5 0-27.1-16.6-27.1-4.8 0-9.3 2.7-4.5 2.5-8.5 7.3l-3.4 34.6q-0.7 6.8-1.5 12.6-0.7 5.6-1.4 9.9 3.4 4.3 8.1 6.8 4.9 2.4 9.7 2.4zm-33.2 46.2h-1.4q-5.1 0-4.7-3.4l10.8-104.2q0.5-5 0.5-7.6 0.2-2.7 0.2-5.4 0-3-0.2-4.8 0-1.8 0-2.9 0-1.8 2.7-2.3 2.9-0.8 4.7-0.8 2.2 0 2.9 3.1 0.7 3.1 0.7 7.7 4.5-5.9 10.5-9 6.1-3 12.4-3 11.3 0 17.8 9.9 6.5 9.9 6.5 28.1 0 16.2-3.8 29.5-3.6 13.1-11 21-7.4 7.8-18.5 7.8-5.8 0-11.2-2.4-5.4-2.5-9-6.8l-4.3 42.3q-0.4 3.2-5.6 3.2zm28.5-46.2q8.2 0 13.3-6.7 5-6.8 7.2-18 2.3-11.1 2.3-24.5 0-27.1-16.5-27.1-4.9 0-9.4 2.7-4.5 2.5-8.5 7.3l-3.4 34.6q-0.7 6.8-1.4 12.6-0.7 5.6-1.5 9.9 3.5 4.3 8.1 6.8 4.9 2.4 9.8 2.4zm85 10.1q-8.3 0-13.5-4.9-5.2-4.9-7.7-13.1-2.4-8.5-2.4-19.5 0-16.2 4.2-29.5 4.1-13.5 12-21.4 8.1-8.1 19.8-8.1 6.9 0 11.7 3.2 5.1 3.1 7.8 6.5 1.4-5.6 2.5-7.2 1.2-1.8 3.9-1.8h0.8q2.3 0 3 1.1 0.7 0.9 0.6 2.7l-8.3 72q-0.7 5.7 0.9 7.7 1.8 2 4.8 2 2.6 0 4-0.4 1.4-0.5 2.3-0.5 1.3 0 1.1 2.2-0.2 1.4-0.5 3.2-0.4 1.8-0.9 2.5-0.7 1.5-3.6 2.4-2.9 0.7-5.6 0.7-2.5 0-5.9-1.1-3.3-1.1-5.6-4.5-2.2-3.4-1.8-10.3-5.1 9.4-11.4 12.8-6.3 3.3-12.2 3.3zm3.1-10.1q5.5 0 11.7-5.4 6.1-5.4 9.9-18l3.7-33.9q0.4-2.3 0.8-5 0.3-2.9 0.5-5-2.5-3.6-6.8-6.3-4.2-2.9-9.8-2.9-8.6 0-14.2 6.8-5.6 6.7-8.3 17.8-2.5 11.2-2.5 24.7 0 12.1 3.4 19.6 3.6 7.6 11.6 7.6zm13.6-93.8q-6.3 0-9.9-3.6-3.6-3.8-3.6-9.9 0-7.6 4.5-12.2 4.5-4.7 11.6-4.7 6.3 0 9.9 3.8 3.6 3.6 3.6 9.9 0 7.3-4.5 12-4.4 4.7-11.6 4.7zm0.8-7.2q3.6 0 5.5-2.7 2-2.7 2-6.8 0-6.9-6.5-6.9-3.7 0-5.7 2.9-1.8 2.7-1.8 6.7 0 6.8 6.5 6.8zm-22.3 111.1q-8.2 0-13.5-4.9-5.2-4.9-7.7-13.1-2.3-8.5-2.3-19.5 0-16.2 4.1-29.5 4.1-13.5 12.1-21.4 8.1-8.1 19.8-8.1 6.8 0 11.7 3.2 5 3.1 7.7 6.5 1.4-5.6 2.5-7.2 1.3-1.8 4-1.8h0.7q2.3 0 3.1 1.1 0.7 0.9 0.5 2.7l-8.3 72q-0.7 5.7 0.9 7.7 1.8 2 4.9 2 2.5 0 3.9-0.4 1.5-0.5 2.4-0.5 1.2 0 1.1 2.2-0.2 1.4-0.6 3.2-0.3 1.8-0.9 2.5-0.7 1.5-3.6 2.4-2.9 0.7-5.6 0.7-2.5 0-5.9-1.1-3.2-1.1-5.6-4.5-2.1-3.4-1.8-10.3-5 9.4-11.3 12.8-6.3 3.3-12.3 3.3zm3.1-10.1q5.6 0 11.7-5.4 6.1-5.4 9.9-18l3.8-33.9q0.3-2.3 0.7-5 0.4-2.9 0.5-5-2.5-3.6-6.8-6.3-4.1-2.9-9.7-2.9-8.7 0-14.2 6.8-5.6 6.7-8.3 17.8-2.5 11.2-2.5 24.7 0 12.1 3.4 19.6 3.6 7.6 11.5 7.6zm13.7-93.8q-6.3 0-9.9-3.6-3.6-3.8-3.6-9.9 0-7.6 4.5-12.2 4.5-4.7 11.5-4.7 6.3 0 9.9 3.8 3.6 3.6 3.6 9.9 0 7.3-4.5 12-4.3 4.7-11.5 4.7zm0.7-7.2q3.6 0 5.6-2.7 2-2.7 2-6.8 0-6.9-6.5-6.9-3.8 0-5.8 2.9-1.8 2.7-1.8 6.7 0 6.8 6.5 6.8zm106.4 111.1q-11.2 0-17.1-9.6-6-9.5-6-27.2 0-11.7 2-22.3 2-10.8 6.3-19.2 4.3-8.5 11-13.4 6.7-4.8 16-4.8 6.1 0 10.5 2.7 4.5 2.5 7.7 7l4.9-45.9q0.5-4 5.2-4h2q4.8 0 4.5 4l-11.9 112.7q-0.6 5 0.5 7.4 1.1 2.3 4.9 2.3 2.3 0 3.8-0.4 1.4-0.5 2.3-0.5 1.3 0 1.1 2.2-0.2 1.4-0.6 3.2-0.3 1.8-0.9 2.5-0.9 1.5-3.6 2.4-2.7 0.7-5.5 0.7-2.7 0-6.2-1.1-3.2-1.1-5.5-4.5-2.2-3.4-1.8-10.3-5.1 9.4-11.4 12.8-6.3 3.3-12.2 3.3zm3-10.1q5.8 0 11.7-5.4 6.2-5.4 9.9-18l3.6-33.9q0.2-2.5 0.6-5 0.3-2.5 0.9-4.9-3.3-4.6-7.2-7-4-2.3-7.9-2.3-7.6 0-12.6 4.3-5.1 4.3-8 11.5-2.8 7.2-4.1 16-1.3 8.9-1.3 18 0 26.7 14.4 26.7zm-7.8 10.1q-11.1 0-17.1-9.6-5.9-9.5-5.9-27.2 0-11.7 2-22.3 1.9-10.8 6.3-19.2 4.3-8.5 10.9-13.4 6.7-4.8 16.1-4.8 6.1 0 10.4 2.7 4.5 2.5 7.7 7l4.9-45.9q0.5-4 5.2-4h2q4.9 0 4.5 4l-11.9 112.7q-0.5 5 0.6 7.4 1 2.3 4.8 2.3 2.4 0 3.8-0.4 1.4-0.5 2.3-0.5 1.3 0 1.1 2.2-0.2 1.4-0.5 3.2-0.4 1.8-0.9 2.5-0.9 1.5-3.6 2.4-2.7 0.7-5.6 0.7-2.7 0-6.1-1.1-3.3-1.1-5.6-4.5-2.2-3.4-1.8-10.3-5 9.4-11.3 12.8-6.3 3.3-12.3 3.3zm3.1-10.1q5.7 0 11.7-5.4 6.1-5.4 9.9-18l3.6-33.9q0.2-2.5 0.5-5 0.4-2.5 0.9-4.9-3.2-4.6-7.2-7-3.9-2.3-7.9-2.3-7.6 0-12.6 4.3-5 4.3-7.9 11.5-2.9 7.2-4.2 16-1.2 8.9-1.2 18 0 26.7 14.4 26.7zm85.7 9.9q-3.1 0-6.5-1.5-3.4-1.4-5.6-5.4-2.2-4.1-1.4-12.2l7.5-73.3q0.4-3.2 5.8-3.2h0.7q5.6 0 5 3.6l-7.3 73.6q-0.4 4.3 0.5 6.3 1.1 2 4.7 2 2.5 0 3.8-0.4 1.2-0.5 2.3-0.5 1.1 0 0.9 2.2-0.2 1.6-0.5 3.4-0.4 1.6-0.8 2.3-0.7 1.5-3.6 2.4-2.8 0.7-5.5 0.7zm1.4-108.2q-5.9 0-5.8-3.2l1.3-12.3q0.2-3.2 6.5-3.2 3.4 0 4.5 0.9 1.2 0.7 1.2 2.3l-1.4 12.3q-0.2 3.2-6.3 3.2zm-6.2 108.2q-3.1 0-6.5-1.5-3.4-1.4-5.6-5.4-2.1-4.1-1.4-12.2l7.6-73.3q0.3-3.2 5.7-3.2h0.7q5.6 0 5.1 3.6l-7.4 73.6q-0.4 4.3 0.5 6.3 1.1 2 4.7 2 2.5 0 3.8-0.4 1.3-0.5 2.3-0.5 1.1 0 0.9 2.2-0.1 1.6-0.5 3.4-0.4 1.6-0.7 2.3-0.7 1.5-3.6 2.4-2.9 0.7-5.6 0.7zm1.4-108.2q-5.9 0-5.7-3.2l1.2-12.3q0.2-3.2 6.5-3.2 3.4 0 4.5 0.9 1.3 0.7 1.3 2.3l-1.5 12.3q-0.1 3.2-6.3 3.2zm54.6 145.3q-6 0-11.7-1.5-5.8-1.6-9.7-3.9-3.8-2.6-3.8-5.4 0-1.7 0.9-3.8 0.9-2.2 2.5-2.2 1.3 0 3.6 1.8 2.5 1.6 6.8 3.4 4.5 1.7 11.2 1.7 11 0 16.7-9.8 5.8-9.9 8.3-32.5-4.1 8.1-10.2 11.7-6.2 3.6-12.5 3.6-11.3 0-17.4-9.6-6-9.5-6-27.2 0-11.7 2-22.3 2-10.8 6.3-19.2 4.3-8.5 11-13.4 6.7-4.8 16-4.8 6.1 0 10.8 2.9 4.9 2.8 8.1 7.7 0.9-3.6 1.8-6.7 0.7-2.1 2-2.7 1.3-0.5 3.1-0.5h0.7q2.5 0 3.2 0.9 0.9 0.7 0.7 2.3l-7.9 77.3q-3 27.9-11.5 40.1-8.3 12.1-25 12.1zm4.8-47q5.6 0 11.7-5.4 6.2-5.4 9.9-18l3.6-33.9q0.2-2.5 0.6-5 0.3-2.5 0.9-4.9-3.3-4.6-7.2-7-4-2.3-7.9-2.3-7.6 0-12.6 4.3-5.1 4.3-8 11.5-2.8 7.2-4.1 16-1.3 8.9-1.3 18 0 13 3.5 19.8 3.6 6.9 10.9 6.9zm-9.6 47q-5.9 0-11.7-1.5-5.7-1.6-9.7-3.9-3.8-2.6-3.8-5.4 0-1.7 0.9-3.8 0.9-2.2 2.5-2.2 1.3 0 3.6 1.8 2.6 1.6 6.9 3.4 4.5 1.7 11.1 1.7 11 0 16.8-9.8 5.7-9.9 8.3-32.5-4.2 8.1-10.3 11.7-6.1 3.6-12.4 3.6-11.4 0-17.5-9.6-5.9-9.5-5.9-27.2 0-11.7 2-22.3 1.9-10.8 6.3-19.2 4.3-8.5 10.9-13.4 6.7-4.8 16.1-4.8 6.1 0 10.8 2.9 4.8 2.8 8.1 7.7 0.9-3.6 1.8-6.7 0.7-2.1 1.9-2.7 1.3-0.5 3.1-0.5h0.7q2.5 0 3.3 0.9 0.9 0.7 0.7 2.3l-7.9 77.3q-3.1 27.9-11.6 40.1-8.2 12.1-25 12.1zm4.9-47q5.6 0 11.7-5.4 6.1-5.4 9.9-18l3.6-33.9q0.2-2.5 0.5-5 0.4-2.5 0.9-4.9-3.2-4.6-7.2-7-3.9-2.3-7.9-2.3-7.6 0-12.6 4.3-5 4.3-7.9 11.5-2.9 7.2-4.2 16-1.2 8.9-1.2 18 0 13 3.4 19.8 3.6 6.9 11 6.9z"/>
</svg>